<mxfile host="app.diagrams.net" modified="2024-04-03T07:29:31.990Z" agent="Mozilla/5.0 (Macintosh; Intel Mac OS X 10_15_7) AppleWebKit/537.36 (KHTML, like Gecko) Chrome/123.0.0.0 Safari/537.36" version="24.2.1" etag="j6kfBy_ZW-Xq-d2IiT-y" type="github">
  <diagram name="Page-1" id="pm2L1Bidg9IsTdtVsFzw">
    <mxGraphModel>
      <root>
        <mxCell id="0" />
        <mxCell id="1" parent="0" />
      </root>
    </mxGraphModel>
  </diagram>
</mxfile>
